<?xml version="1.0" encoding="UTF-8" standalone="no"?>
<!DOCTYPE svg PUBLIC "-//W3C//DTD SVG 20010904//EN"
              "http://www.w3.org/TR/2001/REC-SVG-20010904/DTD/svg10.dtd">

<svg xmlns="http://www.w3.org/2000/svg"
     width="6.94444in" height="6.94444in"
     viewBox="0 0 500 500">
  <path id="Selection #3"
        fill="none" stroke="black" stroke-width="1"
        d="M 303.00,154.00
           C 310.28,154.01 319.35,154.76 324.79,160.21
             331.98,167.41 331.00,184.39 331.00,194.00
             331.00,194.00 266.00,194.00 266.00,194.00
             266.00,194.00 266.00,242.00 266.00,242.00
             266.00,242.00 331.00,242.00 331.00,242.00
             331.00,242.00 331.00,280.00 331.00,280.00
             331.00,280.00 266.00,280.00 266.00,280.00
             266.00,280.00 266.00,304.00 266.00,304.00
             266.00,304.00 222.00,304.00 222.00,304.00
             222.00,304.00 222.00,154.00 222.00,154.00
             222.00,154.00 303.00,154.00 303.00,154.00 Z" />
</svg>
