<?xml version="1.0" encoding="UTF-8" standalone="no"?>
<!DOCTYPE svg PUBLIC "-//W3C//DTD SVG 20010904//EN"
              "http://www.w3.org/TR/2001/REC-SVG-20010904/DTD/svg10.dtd">

<svg xmlns="http://www.w3.org/2000/svg"
     width="6.94444in" height="6.94444in"
     viewBox="0 0 500 500">
  <path id="L Centro"
        fill="none" stroke="black" stroke-width="1"
        d="M 323.90,340.61
           C 315.70,347.66 297.46,346.00 287.00,346.00
             287.00,346.00 198.00,346.00 198.00,346.00
             189.90,345.99 178.95,344.85 173.65,337.91
             169.62,332.64 169.01,324.40 169.00,318.00
             169.00,318.00 169.00,179.00 169.00,179.00
             169.08,172.47 170.54,165.12 175.33,160.33
             180.12,155.54 187.47,154.08 194.00,154.00
             194.00,154.00 218.00,154.00 218.00,154.00
             218.00,154.00 218.00,308.00 218.00,308.00
             218.00,308.00 331.00,308.00 331.00,308.00
             331.00,318.11 332.33,333.35 323.90,340.61 Z" />
</svg>
