<?xml version="1.0" encoding="UTF-8" standalone="no"?>
<!DOCTYPE svg PUBLIC "-//W3C//DTD SVG 20010904//EN"
              "http://www.w3.org/TR/2001/REC-SVG-20010904/DTD/svg10.dtd">

<svg xmlns="http://www.w3.org/2000/svg"
     width="6.94444in" height="6.94444in"
     viewBox="0 0 500 500">
  <path id="Fundo" fill="white" stroke="white" stroke-width="1"
    d="M 257.00,50.21
    C 278.39,50.10 305.17,56.47 325.00,64.40
      345.36,72.54 365.52,84.83 382.00,99.29
      451.34,160.09 469.30,259.11 428.25,341.00
      419.41,358.63 407.94,375.03 394.00,389.00
      377.53,405.49 362.92,417.22 342.00,427.75
      308.46,444.64 279.33,450.43 242.00,450.00
      225.67,449.81 202.54,445.14 187.00,440.00
      161.95,431.72 137.85,418.12 118.00,400.71
      52.53,343.30 31.70,248.54 66.86,169.00
      88.81,119.36 130.81,79.92 182.00,61.69
      193.38,57.64 207.04,53.98 219.00,52.28
      219.00,52.28 236.00,50.21 236.00,50.21
      236.00,50.21 257.00,50.21 257.00,50.21 Z" />
  <path id="Contabilidade"
        fill="#c21c34" stroke="#c21c34" stroke-width="1"
        d="M 306.00,110.45
           C 362.63,133.32 395.15,182.09 400.00,242.00
             400.00,242.00 258.00,242.00 258.00,242.00
             258.00,242.00 258.00,100.00 258.00,100.00
             274.01,101.30 291.05,104.42 306.00,110.45 Z" />
  <path id="Segurança"
        fill="#168540" stroke="#168540" stroke-width="1"
        d="M 389.55,306.00
           C 366.68,362.63 317.91,395.15 258.00,400.00
             258.00,400.00 258.00,258.00 258.00,258.00
             258.00,258.00 400.00,258.00 400.00,258.00
             398.70,274.01 395.58,291.05 389.55,306.00 Z" />
  <path id="Informática"
        fill="black" stroke="black" stroke-width="1"
        d="M 194.00,389.55
           C 137.37,366.68 104.85,317.91 100.00,258.00
             100.00,258.00 242.00,258.00 242.00,258.00
             242.00,258.00 242.00,400.00 242.00,400.00
             225.99,398.70 208.95,395.58 194.00,389.55 Z" />
  <path id="Administração"
        fill="#126392" stroke="#126392" stroke-width="1"
        d="M 110.45,194.00
           C 133.32,137.37 182.09,104.85 242.00,100.00
             242.00,100.00 242.00,242.00 242.00,242.00
             242.00,242.00 100.00,242.00 100.00,242.00
             101.30,225.99 104.42,208.95 110.45,194.00 Z" />
  <path id="E pseudo F"
       fill="#cdced3" stroke="white" stroke-width="2"
       d="M 329.61,340.98
          C 324.00,348.01 315.58,349.90 307.00,350.00
            307.00,350.00 229.00,350.00 229.00,350.00
            229.00,350.00 215.00,350.00 215.00,350.00
            199.07,350.00 173.88,353.84 167.10,335.00
            165.33,330.07 165.01,325.17 165.00,320.00
            165.00,320.00 165.00,230.00 165.00,230.00
            165.00,230.00 165.00,186.00 165.00,186.00
            165.00,177.54 164.30,168.53 168.99,161.00
            174.79,151.69 183.91,150.02 194.00,150.00
            194.00,150.00 289.00,150.00 289.00,150.00
            301.31,150.00 318.54,147.74 327.90,157.10
            337.04,166.25 335.00,185.82 335.00,198.00
            335.00,198.00 270.00,198.00 270.00,198.00
            270.00,198.00 270.00,238.00 270.00,238.00
            270.00,238.00 335.00,238.00 335.00,238.00
            335.00,238.00 335.00,284.00 335.00,284.00
            335.00,284.00 270.00,284.00 270.00,284.00
            270.00,284.00 270.00,304.00 270.00,304.00
            270.00,304.00 335.00,304.00 335.00,304.00
            335.00,314.98 336.70,332.11 329.61,340.98 Z" />
   <path id="Selection #8"
         fill="#87868b" stroke="white" stroke-width="2"
         d="M 329.61,340.98
            C 324.00,348.01 315.58,349.90 307.00,350.00
              307.00,350.00 229.00,350.00 229.00,350.00
              219.97,350.00 191.94,350.77 185.00,349.10
              177.11,347.21 170.75,343.90 167.48,336.00
              165.39,330.95 165.01,325.39 165.00,320.00
              165.00,320.00 165.00,177.00 165.00,177.00
              165.20,160.11 175.11,150.20 192.00,150.00
              192.00,150.00 222.00,150.00 222.00,150.00
              222.00,150.00 222.00,304.00 222.00,304.00
              222.00,304.00 335.00,304.00 335.00,304.00
              335.00,314.98 336.70,332.11 329.61,340.98 Z" />
</svg>
